    <svg className="nav-icon modules-icon" width="35" height="40" viewBox="0 0 35 40" fill="none">
      <path transform="translate(-5, 0)" d="M24.2614 10C24.96 10.0002 25.6363 10.2461 26.1717 10.6948L26.3651 10.8718L32.932 17.4387C33.4259 17.9326 33.7303 18.5847 33.7919 19.2805L33.8038 19.5423V36.7793C33.804 37.5299 33.5205 38.253 33.0101 38.8034C32.4997 39.3538 31.8 39.691 31.0515 39.7473L30.8283 39.7547H12.9755C12.2248 39.755 11.5018 39.4715 10.9513 38.961C10.4009 38.4506 10.0637 37.751 10.0074 37.0024L10 36.7793V12.9755C9.99976 12.2248 10.2833 11.5018 10.7937 10.9513C11.3041 10.4009 12.0038 10.0637 12.7523 10.0074L12.9755 10H24.2614ZM21.9019 12.9755H12.9755V36.7793H30.8283V21.9019H24.1335C23.5416 21.9019 22.974 21.6668 22.5555 21.2483C22.137 20.8298 21.9019 20.2622 21.9019 19.6703V12.9755ZM21.9019 23.3896C22.2965 23.3896 22.6749 23.5464 22.9539 23.8254C23.2329 24.1044 23.3896 24.4828 23.3896 24.8774V28.9062L24.0056 28.2902C24.2861 28.0192 24.662 27.8693 25.052 27.8727C25.4421 27.8761 25.8153 28.0325 26.0911 28.3084C26.3669 28.5842 26.5234 28.9573 26.5268 29.3474C26.5302 29.7375 26.3802 30.1133 26.1092 30.3939L22.9552 33.5509C22.817 33.6892 22.653 33.7989 22.4724 33.8738C22.2917 33.9487 22.0982 33.9872 21.9026 33.9872C21.7071 33.9872 21.5135 33.9487 21.3329 33.8738C21.1523 33.7989 20.9882 33.6892 20.8501 33.5509L17.6946 30.3939C17.5525 30.2567 17.4391 30.0925 17.3612 29.911C17.2832 29.7295 17.2422 29.5343 17.2404 29.3367C17.2387 29.1392 17.2764 28.9433 17.3512 28.7604C17.426 28.5776 17.5364 28.4115 17.6761 28.2718C17.8158 28.1321 17.9819 28.0216 18.1648 27.9468C18.3476 27.872 18.5435 27.8344 18.7411 27.8361C18.9386 27.8378 19.1338 27.8789 19.3153 27.9568C19.4968 28.0348 19.661 28.1481 19.7982 28.2902L20.4142 28.9062V24.8774C20.4142 24.4828 20.5709 24.1044 20.8499 23.8254C21.1289 23.5464 21.5073 23.3896 21.9019 23.3896ZM24.8774 13.5914V18.9264H30.2124L24.8774 13.5914Z" fill="currentColor"/>
    </svg>