<svg width="43" height="31" viewBox="0 0 43 31" fill="none" xmlns="http://www.w3.org/2000/svg">
<mask id="path-1-outside-1_1_1458" maskUnits="userSpaceOnUse" x="0" y="0" width="43" height="31" fill="black">
<rect fill="white" width="43" height="31"/>
<path d="M40.4961 1.94141C41.6387 2.99609 41.6387 4.8418 40.4961 5.89648L17.9961 28.3965C16.9414 29.5391 15.0957 29.5391 14.041 28.3965L2.79102 17.1465C1.64844 16.0918 1.64844 14.2461 2.79102 13.1914C3.8457 12.0488 5.69141 12.0488 6.74609 13.1914L15.9746 22.4199L36.541 1.94141C37.5957 0.798828 39.4414 0.798828 40.4961 1.94141Z"/>
</mask>
<path d="M40.4961 1.94141C41.6387 2.99609 41.6387 4.8418 40.4961 5.89648L17.9961 28.3965C16.9414 29.5391 15.0957 29.5391 14.041 28.3965L2.79102 17.1465C1.64844 16.0918 1.64844 14.2461 2.79102 13.1914C3.8457 12.0488 5.69141 12.0488 6.74609 13.1914L15.9746 22.4199L36.541 1.94141C37.5957 0.798828 39.4414 0.798828 40.4961 1.94141Z" fill="white"/>
<path d="M40.4961 1.94141L39.7613 2.61969L39.7884 2.64908L39.8178 2.67621L40.4961 1.94141ZM40.4961 5.89648L39.8178 5.16168L39.8031 5.17524L39.789 5.18938L40.4961 5.89648ZM17.9961 28.3965L17.289 27.6894L17.2749 27.7035L17.2613 27.7182L17.9961 28.3965ZM14.041 28.3965L14.7758 27.7182L14.7623 27.7035L14.7481 27.6894L14.041 28.3965ZM2.79102 17.1465L3.49812 16.4394L3.48399 16.4252L3.4693 16.4117L2.79102 17.1465ZM2.79102 13.1914L3.4693 13.9262L3.49869 13.8991L3.52582 13.8697L2.79102 13.1914ZM6.74609 13.1914L6.01129 13.8697L6.02485 13.8844L6.03899 13.8985L6.74609 13.1914ZM15.9746 22.4199L15.2675 23.127L15.9731 23.8326L16.6802 23.1285L15.9746 22.4199ZM36.541 1.94141L37.2466 2.65003L37.2615 2.63516L37.2758 2.61969L36.541 1.94141ZM40.4961 1.94141L39.8178 2.67621C40.5314 3.33493 40.5314 4.50296 39.8178 5.16168L40.4961 5.89648L41.1744 6.63129C42.7459 5.18064 42.7459 2.65725 41.1744 1.2066L40.4961 1.94141ZM40.4961 5.89648L39.789 5.18938L17.289 27.6894L17.9961 28.3965L18.7032 29.1036L41.2032 6.60359L40.4961 5.89648ZM17.9961 28.3965L17.2613 27.7182C16.6026 28.4318 15.4345 28.4318 14.7758 27.7182L14.041 28.3965L13.3062 29.0748C14.7569 30.6463 17.2802 30.6463 18.7309 29.0748L17.9961 28.3965ZM14.041 28.3965L14.7481 27.6894L3.49812 16.4394L2.79102 17.1465L2.08391 17.8536L13.3339 29.1036L14.041 28.3965ZM2.79102 17.1465L3.4693 16.4117C2.75568 15.753 2.75568 14.5849 3.4693 13.9262L2.79102 13.1914L2.11274 12.4566C0.541198 13.9073 0.541198 16.4306 2.11274 17.8813L2.79102 17.1465ZM2.79102 13.1914L3.52582 13.8697C4.18454 13.1561 5.35257 13.1561 6.01129 13.8697L6.74609 13.1914L7.4809 12.5131C6.03025 10.9416 3.50686 10.9416 2.05621 12.5131L2.79102 13.1914ZM6.74609 13.1914L6.03899 13.8985L15.2675 23.127L15.9746 22.4199L16.6817 21.7128L7.4532 12.4843L6.74609 13.1914ZM15.9746 22.4199L16.6802 23.1285L37.2466 2.65003L36.541 1.94141L35.8354 1.23279L15.269 21.7113L15.9746 22.4199ZM36.541 1.94141L37.2758 2.61969C37.9345 1.90607 39.1026 1.90607 39.7613 2.61969L40.4961 1.94141L41.2309 1.26313C39.7802 -0.308412 37.2569 -0.308412 35.8062 1.26313L36.541 1.94141Z" fill="white" mask="url(#path-1-outside-1_1_1458)"/>
</svg>
