<svg className="nav-icon" width="26" height="27" viewBox="0 0 26 27" fill="none">
<path d="M14.4444 7.72222V1.94444C14.4444 1.53518 14.5831 1.19237 14.8604 0.916C15.1378 0.63963 15.4806 0.500963 15.8889 0.5H24.5556C24.9648 0.5 25.3081 0.638667 25.5854 0.916C25.8628 1.19333 26.001 1.53615 26 1.94444V7.72222C26 8.13148 25.8613 8.47478 25.584 8.75211C25.3067 9.02944 24.9638 9.16763 24.5556 9.16667H15.8889C15.4796 9.16667 15.1368 9.028 14.8604 8.75066C14.5841 8.47333 14.4454 8.13052 14.4444 7.72222ZM0 13.5V1.94444C0 1.53518 0.138667 1.19237 0.416 0.916C0.693333 0.63963 1.03615 0.500963 1.44444 0.5H10.1111C10.5204 0.5 10.8637 0.638667 11.141 0.916C11.4183 1.19333 11.5565 1.53615 11.5556 1.94444V13.5C11.5556 13.9093 11.4169 14.2526 11.1396 14.5299C10.8622 14.8072 10.5194 14.9454 10.1111 14.9444H1.44444C1.03518 14.9444 0.69237 14.8058 0.416 14.5284C0.13963 14.2511 0.000962963 13.9083 0 13.5ZM14.4444 25.0556V13.5C14.4444 13.0907 14.5831 12.7479 14.8604 12.4716C15.1378 12.1952 15.4806 12.0565 15.8889 12.0556H24.5556C24.9648 12.0556 25.3081 12.1942 25.5854 12.4716C25.8628 12.7489 26.001 13.0917 26 13.5V25.0556C26 25.4648 25.8613 25.8081 25.584 26.0854C25.3067 26.3628 24.9638 26.501 24.5556 26.5H15.8889C15.4796 26.5 15.1368 26.3613 14.8604 26.084C14.5841 25.8067 14.4454 25.4638 14.4444 25.0556ZM0 25.0556V19.2778C0 18.8685 0.138667 18.5257 0.416 18.2493C0.693333 17.973 1.03615 17.8343 1.44444 17.8333H10.1111C10.5204 17.8333 10.8637 17.972 11.141 18.2493C11.4183 18.5267 11.5565 18.8695 11.5556 19.2778V25.0556C11.5556 25.4648 11.4169 25.8081 11.1396 26.0854C10.8622 26.3628 10.5194 26.501 10.1111 26.5H1.44444C1.03518 26.5 0.69237 26.3613 0.416 26.084C0.13963 25.8067 0.000962963 25.4638 0 25.0556ZM2.88889 12.0556H8.66667V3.38889H2.88889V12.0556ZM17.3333 23.6111H23.1111V14.9444H17.3333V23.6111ZM17.3333 6.27778H23.1111V3.38889H17.3333V6.27778ZM2.88889 23.6111H8.66667V20.7222H2.88889V23.6111Z" fill="currentColor"/>
</svg>