<svg xmlns="http://www.w3.org/2000/svg" width="26" height="26" viewBox="0 0 26 26" fill="none">
  <path d="M5.5 19.9855L11.5679 19.9648L24.8119 6.84733C25.3316 6.32758 25.6176 5.63733 25.6176 4.90308C25.6176 4.16883 25.3316 3.47858 24.8119 2.95883L22.6311 0.778078C21.5916 -0.261422 19.778 -0.255922 18.7468 0.773953L5.5 13.8942V19.9855ZM20.6869 2.72233L22.8718 4.89895L20.6759 7.0742L18.4951 4.89483L20.6869 2.72233ZM8.25 15.041L16.5412 6.82808L18.722 9.00883L10.4321 17.219L8.25 17.2258V15.041Z" fill="#0A2472"/>
  <path d="M2.75 25.4668H22C23.5166 25.4668 24.75 24.2334 24.75 22.7168V10.7983L22 13.5483V22.7168H7.09225C7.0565 22.7168 7.01938 22.7305 6.98363 22.7305C6.93825 22.7305 6.89288 22.7182 6.84613 22.7168H2.75V3.4668H12.1646L14.9146 0.716797H2.75C1.23337 0.716797 0 1.95017 0 3.4668V22.7168C0 24.2334 1.23337 25.4668 2.75 25.4668Z" fill="#0A2472"/>
</svg>