    <svg className="nav-icon" width="30" height="34" viewBox="0 0 30 34" fill="none">
      <path d="M1 15.4C1 9.4 1 6.4 2.48556 4.2976C2.96476 3.61868 3.54481 3.02151 4.20444 2.528C6.25 1 9.16822 1 15 1C20.8318 1 23.75 1 25.794 2.528C26.4542 3.02138 27.0348 3.61855 27.5144 4.2976C29 6.4 29 9.4016 29 15.4V18.6C29 24.6 29 27.6 27.5144 29.7024C27.0348 30.3814 26.4542 30.9786 25.794 31.472C23.75 33 20.8318 33 15 33C9.16822 33 6.25 33 4.206 31.472C3.54581 30.9786 2.96523 30.3814 2.48556 29.7024C1 27.6 1 24.5984 1 18.6V15.4Z" stroke="currentColor" strokeWidth="2.25" fill="none"/>
      <path d="M19.6662 18.6001L18.3331 15.4001M18.3331 15.4001L15.9205 9.61127C15.7665 9.24007 15.404 9.00007 14.9996 9.00007C14.8045 8.99778 14.6131 9.05449 14.4491 9.16315C14.2851 9.27181 14.1557 9.42764 14.0771 9.61127L11.666 15.4001M18.3331 15.4001H11.666M10.3329 18.6001L11.666 15.4001M8.77734 25.0001H21.2218" stroke="currentColor" strokeWidth="2.25" strokeLinecap="round" strokeLinejoin="round" fill="none"/>
    </svg>