    <svg className="nav-icon" width="27" height="30" viewBox="0 0 27 30" fill="none">
      <path d="M13.5 18C13.767 18 14.028 17.912 14.25 17.7472C14.472 17.5824 14.6451 17.3481 14.7472 17.074C14.8494 16.7999 14.8762 16.4983 14.8241 16.2074C14.772 15.9164 14.6434 15.6491 14.4546 15.4393C14.2658 15.2296 14.0252 15.0867 13.7634 15.0288C13.5015 14.9709 13.2301 15.0006 12.9834 15.1142C12.7367 15.2277 12.5259 15.42 12.3775 15.6666C12.2292 15.9133 12.15 16.2033 12.15 16.5C12.15 16.8978 12.2922 17.2794 12.5454 17.5607C12.7986 17.842 13.142 18 13.5 18ZM20.25 18C20.517 18 20.778 17.912 21 17.7472C21.222 17.5824 21.3951 17.3481 21.4972 17.074C21.5994 16.7999 21.6262 16.4983 21.5741 16.2074C21.522 15.9164 21.3934 15.6491 21.2046 15.4393C21.0158 15.2296 20.7752 15.0867 20.5134 15.0288C20.2515 14.9709 19.9801 15.0006 19.7334 15.1142C19.4867 15.2277 19.2759 15.42 19.1275 15.6666C18.9792 15.9133 18.9 16.2033 18.9 16.5C18.9 16.8978 19.0422 17.2794 19.2954 17.5607C19.5486 17.842 19.892 18 20.25 18ZM13.5 24C13.767 24 14.028 23.912 14.25 23.7472C14.472 23.5824 14.6451 23.3481 14.7472 23.074C14.8494 22.7999 14.8762 22.4983 14.8241 22.2074C14.772 21.9164 14.6434 21.6491 14.4546 21.4393C14.2658 21.2296 14.0252 21.0867 13.7634 21.0288C13.5015 20.9709 13.2301 21.0006 12.9834 21.1142C12.7367 21.2277 12.5259 21.42 12.3775 21.6666C12.2292 21.9133 12.15 22.2033 12.15 22.5C12.15 22.8978 12.2922 23.2794 12.5454 23.5607C12.7986 23.842 13.142 24 13.5 24ZM20.25 24C20.517 24 20.778 23.912 21 23.7472C21.222 23.5824 21.3951 23.3481 21.4972 23.074C21.5994 22.7999 21.6262 22.4983 21.5741 22.2074C21.522 21.9164 21.3934 21.6491 21.2046 21.4393C21.0158 21.2296 20.7752 21.0867 20.5134 21.0288C20.2515 20.9709 19.9801 21.0006 19.7334 21.1142C19.4867 21.2277 19.2759 21.42 19.1275 21.6666C18.9792 21.9133 18.9 22.2033 18.9 22.5C18.9 22.8978 19.0422 23.2794 19.2954 23.5607C19.5486 23.842 19.892 24 20.25 24ZM6.75 18C7.017 18 7.27801 17.912 7.50002 17.7472C7.72203 17.5824 7.89506 17.3481 7.99724 17.074C8.09942 16.7999 8.12615 16.4983 8.07406 16.2074C8.02197 15.9164 7.89339 15.6491 7.70459 15.4393C7.51579 15.2296 7.27525 15.0867 7.01337 15.0288C6.7515 14.9709 6.48006 15.0006 6.23338 15.1142C5.9867 15.2277 5.77586 15.42 5.62752 15.6666C5.47918 15.9133 5.4 16.2033 5.4 16.5C5.4 16.8978 5.54223 17.2794 5.79541 17.5607C6.04858 17.842 6.39196 18 6.75 18ZM22.95 3H21.6V1.5C21.6 1.10218 21.4578 0.720644 21.2046 0.43934C20.9514 0.158035 20.608 0 20.25 0C19.892 0 19.5486 0.158035 19.2954 0.43934C19.0422 0.720644 18.9 1.10218 18.9 1.5V3H8.1V1.5C8.1 1.10218 7.95777 0.720644 7.70459 0.43934C7.45142 0.158035 7.10804 0 6.75 0C6.39196 0 6.04858 0.158035 5.79541 0.43934C5.54223 0.720644 5.4 1.10218 5.4 1.5V3H4.05C2.97587 3 1.94574 3.47411 1.18622 4.31802C0.426695 5.16193 0 6.30653 0 7.5V25.5C0 26.6935 0.426695 27.8381 1.18622 28.682C1.94574 29.5259 2.97587 30 4.05 30H22.95C24.0241 30 25.0543 29.5259 25.8138 28.682C26.5733 27.8381 27 26.6935 27 25.5V7.5C27 6.30653 26.5733 5.16193 25.8138 4.31802C25.0543 3.47411 24.0241 3 22.95 3ZM24.3 25.5C24.3 25.8978 24.1578 26.2794 23.9046 26.5607C23.6514 26.842 23.308 27 22.95 27H4.05C3.69196 27 3.34858 26.842 3.09541 26.5607C2.84223 26.2794 2.7 25.8978 2.7 25.5V12H24.3V25.5ZM24.3 9H2.7V7.5C2.7 7.10218 2.84223 6.72064 3.09541 6.43934C3.34858 6.15804 3.69196 6 4.05 6H22.95C23.308 6 23.6514 6.15804 23.9046 6.43934C24.1578 6.72064 24.3 7.10218 24.3 7.5V9ZM6.75 24C7.017 24 7.27801 23.912 7.50002 23.7472C7.72203 23.5824 7.89506 23.3481 7.99724 23.074C8.09942 22.7999 8.12615 22.4983 8.07406 22.2074C8.02197 21.9164 7.89339 21.6491 7.70459 21.4393C7.51579 21.2296 7.27525 21.0867 7.01337 21.0288C6.7515 20.9709 6.48006 21.0006 6.23338 21.1142C5.9867 21.2277 5.77586 21.42 5.62752 21.6666C5.47918 21.9133 5.4 22.2033 5.4 22.5C5.4 22.8978 5.54223 23.2794 5.79541 23.5607C6.04858 23.842 6.39196 24 6.75 24Z" fill="currentColor"/>
    </svg>